<svg width="113" height="53" viewBox="0 0 113 53" fill="none" xmlns="http://www.w3.org/2000/svg">
<path d="M24.8126 28.5049C23.5285 26.5 22.8766 24.2371 22.8766 21.7558C22.8766 19.8899 23.2519 18.1431 24.0026 16.5352C24.3977 15.6816 24.8719 14.9075 25.4052 14.173C24.9311 13.5378 24.378 12.9423 23.7656 12.3865C22.4222 11.1757 20.9208 10.2625 19.2614 9.62734C17.5427 9.01199 15.7844 8.69438 13.967 8.69438C12.1692 8.69438 10.411 9.01199 8.69231 9.62734L8.13916 9.86554L7.58601 10.1037V0L0 0.0198502V21.9345C0.0197552 24.3562 0.651923 26.5596 1.93601 28.5247C3.20035 30.5296 4.91906 32.0779 7.09213 33.2292C9.24545 34.3805 11.5568 34.9562 13.9867 34.9562C15.8437 34.9562 17.6019 34.6187 19.2811 33.9835C20.9406 33.3682 22.442 32.4551 23.7853 31.2243C24.3977 30.6487 24.9509 30.0532 25.4448 29.3981C25.2077 29.1202 25.0101 28.8225 24.8126 28.5049ZM18.4514 26.1824C17.1871 27.4131 15.7054 28.0285 13.967 28.0285C12.2483 28.0285 10.7666 27.4131 9.50227 26.1824C8.23794 24.9517 7.58601 23.4828 7.58601 21.7757C7.58601 20.664 7.88234 19.6318 8.475 18.6989C9.06766 17.7659 9.85787 17.0116 10.8259 16.4558C11.8136 15.9 12.8607 15.6221 13.9472 15.6221C15.0733 15.6221 16.1203 15.9 17.0883 16.4558C18.076 17.0116 18.8663 17.7659 19.4589 18.6989C20.0516 19.6318 20.3479 20.6442 20.3479 21.7757C20.3677 23.4828 19.7355 24.9517 18.4514 26.1824Z" fill="#3AB549"/>
<path d="M49.8425 22.0138C49.8425 20.7236 50.0203 19.473 50.3759 18.3019C50.5339 17.7858 50.7315 17.2697 50.9488 16.7932C51.2253 16.1977 51.5217 15.6419 51.8773 15.106C51.2253 13.9745 50.3956 12.9622 49.4079 12.0689C48.0645 10.858 46.5631 9.94493 44.9037 9.32958C43.185 8.69437 41.4267 8.37677 39.6093 8.37677C38.6808 8.37677 37.772 8.45617 36.883 8.63482C36.0336 8.79362 35.1841 9.03183 34.3544 9.34943C32.6752 9.98463 31.1738 10.8977 29.8502 12.1086C28.5463 13.2996 27.519 14.6891 26.7683 16.297C26.7486 16.3168 26.7486 16.3367 26.7486 16.3565C26.0176 17.9446 25.662 19.6715 25.662 21.5176C25.662 23.5026 26.0769 25.3288 26.8869 27.0161C27.0844 27.4528 27.3215 27.8697 27.5981 28.2667C28.8624 30.2715 30.5811 31.8397 32.7542 32.991C34.9075 34.1423 37.1991 34.718 39.629 34.718H39.6488C41.5058 34.718 43.264 34.3805 44.9432 33.7453C46.6026 33.13 48.104 32.197 49.4474 30.9861C50.2771 30.212 50.9883 29.3783 51.6007 28.4652C51.0475 27.5322 50.6327 26.5595 50.3364 25.5273C50.0005 24.3959 49.8425 23.2247 49.8425 22.0138ZM38.8388 27.7109C37.4559 27.5521 36.2311 26.9565 35.1643 25.9243C33.9 24.6936 33.2481 23.2247 33.2481 21.5176C33.2481 20.406 33.5444 19.3738 34.137 18.421C34.7297 17.488 35.5199 16.7337 36.5077 16.1779C36.9028 15.9595 37.2979 15.7809 37.693 15.6419C38.3252 15.4434 38.9573 15.3243 39.629 15.3243C40.7551 15.3243 41.8021 15.6022 42.7701 16.158C43.7579 16.7138 44.5481 17.4682 45.1407 18.4011C45.7334 19.3341 46.0297 20.3663 46.0297 21.4977C46.0297 23.2049 45.3975 24.6738 44.1134 25.9045C42.8491 27.1352 41.3675 27.7506 39.629 27.7506C39.3524 27.7506 39.0956 27.7307 38.8388 27.7109Z" fill="#12A89D"/>
<path d="M76.3935 12.3071C75.0502 11.0963 73.5488 10.1832 71.8893 9.5678C70.1706 8.93259 68.4124 8.61499 66.5949 8.61499C65.6664 8.61499 64.7577 8.69439 63.8687 8.87304C63.0192 9.03184 62.1698 9.27005 61.34 9.58765C59.6608 10.2229 58.1595 11.136 56.8358 12.3468C55.532 13.5378 54.5047 14.9273 53.754 16.5352C53.517 17.0315 53.3392 17.5277 53.1811 18.0438C52.8255 19.215 52.6477 20.4457 52.6477 21.7558C52.6477 22.9865 52.8058 24.1577 53.1219 25.2494C53.4379 26.4008 53.9318 27.4727 54.5837 28.5049C55.8481 30.5097 57.5668 32.0779 59.7399 33.2292C61.8932 34.3805 64.1848 34.9562 66.6147 34.9562C68.4717 34.9562 70.2497 34.6187 71.9091 33.9835C73.2129 33.4873 74.3983 32.8322 75.5243 31.9787V19.7906C75.5243 18.2026 75.7021 16.7933 76.0775 15.5427C76.354 14.6296 76.7096 13.7959 77.1838 13.0614C76.9072 12.8034 76.6701 12.5652 76.3935 12.3071ZM65.8047 27.9689C64.4219 27.8101 63.197 27.2146 62.1303 26.1824C60.8659 24.9517 60.214 23.4828 60.214 21.7757C60.214 20.6641 60.5103 19.6318 61.103 18.679C61.6956 17.7461 62.4858 16.9918 63.4736 16.436C63.8687 16.2176 64.2638 16.039 64.6589 15.9C65.2713 15.7015 65.9233 15.5824 66.5949 15.5824C67.721 15.5824 68.768 15.8603 69.736 16.4161C70.7238 16.9719 71.514 17.7262 72.0869 18.6592C72.6796 19.612 72.9759 20.6244 72.9759 21.7558C72.9759 23.4629 72.3437 24.9318 71.0596 26.1626C69.7953 27.3933 68.3136 28.0086 66.5752 28.0086C66.3184 28.0086 66.0615 27.9888 65.8047 27.9689Z" fill="#EE4037"/>
<path d="M102.451 8.67456H102.016C101.502 8.69441 100.989 8.75396 100.515 8.81351C98.4009 9.09141 96.6822 9.72662 95.3191 10.6794C95.0227 10.4611 94.7067 10.2824 94.3708 10.1038C92.8299 9.28992 90.8939 8.81351 88.6023 8.67456H88.1677C87.654 8.69441 87.1404 8.75396 86.6663 8.81351C82.4386 9.36932 79.6927 11.3345 78.4283 14.6892C77.8949 16.0985 77.6381 17.7659 77.6381 19.6716V34.2019H85.2636V19.6716C85.2636 17.5873 85.8761 16.297 87.1009 15.8206C87.417 15.7015 87.7726 15.6221 88.1677 15.6221H88.6023C90.4 15.6817 91.368 16.8528 91.4865 19.0959V34.2019H99.1516V19.0959C99.2504 17.3491 99.8628 16.2573 100.969 15.8206C101.285 15.7015 101.641 15.642 102.036 15.6221H102.47C104.406 15.6817 105.374 17.0315 105.374 19.6716V34.2019H113V19.6716C113 12.724 109.484 9.05171 102.451 8.67456Z" fill="#F7941D"/>
<path d="M13.3941 53C16.8854 53 19.7157 50.1561 19.7157 46.648C19.7157 43.1398 16.8854 40.2959 13.3941 40.2959C9.9027 40.2959 7.07239 43.1398 7.07239 46.648C7.07239 50.1561 9.9027 53 13.3941 53Z" fill="#3AB549"/>
<path d="M39.0759 53C42.5673 53 45.3976 50.1561 45.3976 46.648C45.3976 43.1398 42.5673 40.2959 39.0759 40.2959C35.5845 40.2959 32.7542 43.1398 32.7542 46.648C32.7542 50.1561 35.5845 53 39.0759 53Z" fill="#12A89D"/>
<path d="M66.1406 53C69.6319 53 72.4622 50.1561 72.4622 46.648C72.4622 43.1398 69.6319 40.2959 66.1406 40.2959C62.6492 40.2959 59.8189 43.1398 59.8189 46.648C59.8189 50.1561 62.6492 53 66.1406 53Z" fill="#EE4037"/>
<path d="M94.7857 53C98.277 53 101.107 50.1561 101.107 46.648C101.107 43.1398 98.277 40.2959 94.7857 40.2959C91.2943 40.2959 88.464 43.1398 88.464 46.648C88.464 50.1561 91.2943 53 94.7857 53Z" fill="#F7941D"/>
</svg>
