<?xml version="1.0" standalone="no"?>
<!DOCTYPE svg PUBLIC "-//W3C//DTD SVG 20010904//EN"
 "http://www.w3.org/TR/2001/REC-SVG-20010904/DTD/svg10.dtd">
<svg version="1.0" xmlns="http://www.w3.org/2000/svg"
 width="1280.000000pt" height="1280.000000pt" viewBox="0 0 1280.000000 1280.000000"
 preserveAspectRatio="xMidYMid meet">

<g transform="translate(0.000000,1280.000000) scale(0.100000,-0.100000)"
fill="#000000" stroke="none">
<path d="M0 6400 l0 -6400 6400 0 6400 0 0 6400 0 6400 -6400 0 -6400 0 0
-6400z m7128 2880 l222 -160 286 -2 286 -3 202 -349 201 -349 305 -219 c168
-121 314 -226 324 -234 19 -13 19 -17 -8 -294 l-28 -280 141 -244 141 -244
-200 -347 -201 -347 -40 -391 c-22 -216 -41 -397 -43 -402 -2 -6 -118 -62
-258 -125 l-255 -114 -139 -242 -139 -243 -401 -1 -401 0 -368 -166 -368 -165
-26 19 c-14 10 -116 83 -226 163 l-200 144 -288 5 -289 5 -201 348 -202 348
-320 230 c-176 127 -321 235 -322 242 -2 7 10 133 25 280 l28 269 -138 240
c-76 132 -138 245 -138 251 0 6 89 166 199 356 l199 346 36 380 c21 209 40
388 44 398 5 12 95 58 252 128 135 61 250 115 256 120 6 5 74 117 149 249
l139 240 405 0 406 1 350 159 c193 87 357 159 365 159 9 1 116 -71 238 -159z"/>
<path d="M6716 9197 l-159 -72 132 -3 c72 -1 190 -1 263 0 l132 3 -101 73
c-56 39 -103 72 -105 71 -2 0 -74 -33 -162 -72z"/>
<path d="M5436 8938 c-34 -56 -115 -198 -112 -198 6 0 469 210 474 215 3 3
-74 5 -171 5 -172 0 -177 -1 -191 -22z"/>
<path d="M5710 8745 c-261 -117 -486 -220 -500 -227 -17 -10 -113 -166 -299
-489 l-275 -474 -56 -550 c-55 -536 -56 -551 -39 -585 10 -19 134 -237 277
-483 l259 -448 451 -324 450 -325 554 0 553 1 505 227 504 227 277 480 277
480 56 551 56 551 -277 479 -277 480 -447 322 -447 322 -563 -1 -564 0 -475
-214z"/>
<path d="M7586 8951 c8 -7 314 -228 403 -291 l34 -24 -26 45 c-15 24 -57 97
-94 161 l-68 118 -129 0 c-75 0 -126 -4 -120 -9z"/>
<path d="M4830 8350 c-58 -27 -108 -50 -113 -52 -6 -3 -48 -359 -42 -366 1 -1
63 104 138 233 74 129 132 235 129 234 -4 0 -54 -23 -112 -49z"/>
<path d="M8521 8082 c2 -6 63 -112 134 -236 l130 -225 7 52 c3 29 9 88 13 132
l6 80 -88 62 c-48 33 -114 80 -147 104 -32 23 -57 37 -55 31z"/>
<path d="M4352 7061 l-92 -159 59 -101 c33 -56 63 -103 67 -104 7 -2 65 512
59 521 -1 1 -43 -69 -93 -157z"/>
<path d="M8890 7112 c0 -4 -11 -117 -25 -251 -15 -134 -24 -248 -22 -254 2 -6
43 58 91 142 l87 152 -61 110 c-58 103 -70 120 -70 101z"/>
<path d="M4496 6159 c-5 -15 -26 -233 -23 -235 26 -22 298 -213 294 -207 -283
496 -264 464 -271 442z"/>
<path d="M8472 5643 c-72 -125 -129 -229 -128 -231 2 -1 52 19 111 45 71 31
110 54 115 67 9 22 42 337 37 343 -2 1 -62 -99 -135 -224z"/>
<path d="M5280 5139 c7 -13 49 -86 92 -161 l80 -138 131 0 c76 0 127 4 121 9
-10 10 -402 292 -423 305 -11 7 -11 4 -1 -15z"/>
<path d="M7730 4964 c-113 -51 -218 -100 -235 -108 -28 -14 -15 -15 155 -13
l185 2 62 108 c34 59 57 107 50 106 -7 -1 -104 -43 -217 -95z"/>
<path d="M6291 4615 c72 -52 110 -74 124 -71 11 3 90 37 175 75 l155 71 -279
0 -279 0 104 -75z"/>
</g>
</svg>
